<svg height="511pt" viewBox="-6 1 511 511.999" width="511pt" xmlns="http://www.w3.org/2000/svg"><path d="m427.707031 81.007812c-.003906 2.851563 1.285157 5.488282 3.539063 7.226563 5.496094 4.238281 7.992187-.09375 19.378906.289063 15.734375.539062 29.644531 10.429687 35.4375 25.195312 1.511719 3.855469 5.863281 5.757812 9.722656 4.246094 3.855469-1.515625 5.753906-5.867188 4.242188-9.722656-9.148438-23.324219-32.792969-37.449219-57.671875-34.3125-5.320313-53.410157-66.464844-81.816407-110.710938-51.054688-9.339843-13.789062-25.132812-22.875-43.003906-22.875-21.457031 0-40.878906 13.546875-48.484375 33.363281-10.527344-1.023437-20.886719 2.867188-28.160156 10.632813-15.816406-2.097656-31.050782 5.179687-39.578125 18.089844-33.300781 7.90625-63.492188 26.800781-85.304688 53.460937-22.847656 27.925781-35.429687 63.21875-35.429687 99.378906v22.230469c0 22.152344-8.628906 42.976562-24.289063 58.640625l-20.59375 20.59375c-13.449219 13.449219-3.949219 36.441406 15.09375 36.441406h29.617188c.09375 0 .171875.074219.171875.167969v25.410156c0 42.203125 34.335937 76.539063 76.535156 76.539063 10.667969 0 19.347656 8.675781 19.347656 19.34375v22.054687c0 8.628906 7.023438 15.652344 15.652344 15.652344h44.277344c4.144531 0 7.5-3.359375 7.5-7.5 0-4.144531-3.355469-7.5-7.5-7.5h-44.277344c-.359375 0-.652344-.292969-.652344-.652344v-22.054687c0-18.9375-15.40625-34.347657-34.347656-34.347657-33.929688 0-61.535156-27.605468-61.535156-61.535156v-25.410156c0-8.363281-6.804688-15.171875-15.171875-15.171875h-29.617188c-5.652343 0-8.488281-6.835937-4.488281-10.832031l20.59375-20.59375c18.496094-18.496094 28.683594-43.085938 28.683594-69.246094v-22.230469c0-62.074219 41.042968-117.085937 99.304687-135.511719-2.789062 22.195313 12.667969 42.132813 34.0625 45.523438-1.410156 31.207031 23.359375 57.617188 55.023438 57.617188h92.058593c2.390626 10.261718 3.636719 20.789062 3.710938 31.386718l-30.800781 55.8125c-3.1875 5.785156 1.011719 12.925782 7.632812 12.925782h14.8125v45.152343c0 .125.003907.246094.007813.367188-6.074219 16.902343-15.207032 32.324219-27.160156 45.871093-15.4375 17.496094-23.941407 40.789063-23.941407 65.59375v56.566407c0 .421875-.34375.769531-.769531.769531h-48.125c-4.144531 0-7.503906 3.355469-7.503906 7.5 0 4.140625 3.359375 7.5 7.503906 7.5h48.125c8.695312 0 15.769531-7.074219 15.769531-15.769531v-56.566407c0-21.144531 7.171875-40.914062 20.1875-55.667968 12.773438-14.472656 22.628907-30.894532 29.339844-48.855469 1.179687-.761719 2.199219-1.800781 2.910156-3.097656l37.816407-68.523438c3.199218-5.800781-1.023438-12.925781-7.632813-12.925781h-14.8125v-45.15625c0-5.097656-4.363281-9.101562-9.425781-8.6875-.550782-4.765625-1.308594-9.503906-2.292969-14.195312h86.75c22.144531 0 41.925781-13.230469 50.394531-33.707032 1.582032-3.828125-.238281-8.214844-4.066406-9.796875-3.824219-1.582031-8.214844.234375-9.796875 4.0625-6.140625 14.847657-20.480469 24.441407-36.527344 24.441407h-194.164062c-22.445313 0-41.09375-18.539063-40.023438-42.105469h127.851563c20.789062 0 37.742187-15.59375 40.195312-35.445313 3.164063-25.597656-17.964844-47.261718-43.070312-45.492187-.378906-2.664063-1.070313-5.636719-1.773438-7.90625 36.488282-27.777344 89.453125-1.664063 89.453125 44.402343zm-68.503906 148.832032v27.042968c0 4.804688 3.90625 8.714844 8.714844 8.714844h10.449219l-20.882813 37.839844v-27.042969c0-4.808593-3.90625-8.71875-8.714844-8.71875h-10.449219zm-15.40625-170.414063c13.914063.476563 25.347656 12.386719 24.582031 26.894531-.703125 13.285157-11.671875 24.125-25.480468 24.125h-134.433594c-.003906 0-.007813 0-.011719 0-28.019531 0-36.679687-31.386718-17.863281-46.238281 5.886718-4.648437 13.269531-6.550781 20.855468-5.113281 4.003907.761719 8.066407-.707031 10.605469-3.828125 4.5625-5.589844 11.78125-8.132813 18.8125-6.636719 5.386719 1.144532 10.847657-2.101562 12.441407-7.386718 4.65625-15.449219 19.183593-26.242188 35.335937-26.242188 20.355469 0 36.90625 16.5625 36.90625 36.925781 0 4.054688 2.363281 5.835938 3.363281 6.835938 4.742188 3.648437 7.75.425781 14.886719.664062zm0 0"/><path d="m268.289062 201.230469-37.816406 68.523437c-3.199218 5.804688 1.023438 12.925782 7.632813 12.925782h14.8125v45.15625c0 8.921874 11.984375 12.121093 16.347656 4.210937l37.816406-68.527344c3.199219-5.800781-1.023437-12.921875-7.632812-12.921875h-14.8125v-45.15625c0-8.980468-12.019531-12.058594-16.347657-4.210937zm20.511719 64.367187-20.882812 37.839844v-27.042969c0-4.808593-3.90625-8.71875-8.714844-8.71875h-10.449219l20.882813-37.835937v27.042968c0 4.804688 3.90625 8.714844 8.714843 8.714844zm0 0"/><path d="m448.398438 332.046875 37.816406-68.527344c3.199218-5.800781-1.023438-12.921875-7.632813-12.921875h-14.8125v-45.15625c0-8.980468-12.019531-12.058594-16.347656-4.210937l-37.8125 68.523437c-3.199219 5.800782 1.019531 12.925782 7.628906 12.925782h14.816407v45.15625c0 9.027343 12.015624 12.050781 16.34375 4.210937zm-20.511719-64.367187 20.882812-37.835938v27.039062c0 4.804688 3.910157 8.714844 8.714844 8.714844h10.449219l-20.878906 37.839844v-27.042969c0-4.808593-3.910157-8.714843-8.714844-8.714843zm0 0"/></svg>