<svg height="512pt" viewBox="0 -6 512.00078 512" width="512pt" xmlns="http://www.w3.org/2000/svg"><path d="m377.253906 269.851562h-69.304687c-4.152344 0-7.519531 3.367188-7.519531 7.519532s3.367187 7.519531 7.519531 7.519531h69.304687c4.152344 0 7.519532-3.367187 7.519532-7.519531s-3.367188-7.519532-7.519532-7.519532zm0 0"/><path d="m377.253906 297.675781h-69.304687c-4.152344 0-7.519531 3.367188-7.519531 7.519531 0 4.152344 3.367187 7.519532 7.519531 7.519532h69.304687c4.152344 0 7.519532-3.367188 7.519532-7.519532 0-4.152343-3.367188-7.519531-7.519532-7.519531zm0 0"/><path d="m377.253906 325.5h-69.304687c-4.152344 0-7.519531 3.367188-7.519531 7.519531 0 4.152344 3.367187 7.519531 7.519531 7.519531h69.304687c4.152344 0 7.519532-3.367187 7.519532-7.519531 0-4.152343-3.367188-7.519531-7.519532-7.519531zm0 0"/><path d="m505.917969 297.34375c-4.070313-.792969-8.023438 1.867188-8.820313 5.941406-3.835937 19.664063-16.796875 36.199219-34.664062 44.230469-3.902344 1.75-6.421875 5.644531-6.421875 9.917969v14.40625l-21.660157-16.667969c-2.542968-1.957031-5.421874-3.308594-8.558593-4.023437-2.910157-.664063-5.769531-1.558594-8.554688-2.671876 19.429688-34.53125 14.078125-78.5625-13.441406-107.300781 10.882813-8.164062 24.042969-12.242187 37.734375-11.585937 24.433594 1.167968 46.042969 18.179687 53.769531 42.332031 1.265625 3.957031 5.496094 6.136719 9.453125 4.871094 3.957032-1.265625 6.136719-5.496094 4.871094-9.453125-9.628906-30.101563-36.703125-51.308594-67.375-52.773438-18.335938-.871094-35.828125 4.972656-49.953125 16.535156-15.832031-11.636718-34.886719-17.464843-54.71875-16.523437-37.957031 1.816406-69.644531 28.898437-79.644531 65.015625l-12.609375-4.882812c-.832031-.324219-1.394531-1.140626-1.394531-2.035157v-23.699219c16.492187-12.65625 27.867187-31.648437 30.460937-53.308593 19.613281-1.695313 34.230469-17.3125 34.230469-35.292969 0-8.296875-3.179688-16.386719-8.824219-22.738281v-32.667969c0-57.878906-47.089844-104.96875-104.96875-104.96875-57.882813 0-104.96875 47.089844-104.96875 104.96875v33.4375c-5.707031 6.285156-8.820313 13.972656-8.820313 21.96875 0 18.019531 14.648438 33.601562 34.222657 35.292969 2.609375 21.996093 14.246093 41.695312 32.191406 54.542969v22.117187c0 1.101563-.691406 2.109375-1.722656 2.507813l-15.007813 5.820312c-.003906 0-.003906 0-.007812.003906l-86.074219 33.367188c-.046875.019531-.09375.039062-.140625.058594-1.816406.75-44.5 18.875-44.5 68.757812v100.800781c0 9.257813 7.53125 16.789063 16.789062 16.789063h160.726563c4.152344 0 7.519531-3.367188 7.519531-7.519532 0-4.152343-3.367187-7.519531-7.519531-7.519531h-102.007813v-101.402343c0-4.152344-3.367187-7.519532-7.519531-7.519532-4.152343 0-7.519531 3.367188-7.519531 7.519532v101.402343h-43.679688c-.964843 0-1.75-.785156-1.75-1.75v-100.800781c0-39.273438 33.175782-53.992188 35.136719-54.824219l81.253907-31.503906c7.808593 8.300781 13.601562 15.230469 24.933593 22.316406 11.933594 7.464844 25.09375 11.460938 38.464844 11.460938 20.382813 0 40.296875-9.226563 56.066406-25.984375l3.8125-4.050782c-.019531.445313-.03125.890626-.046875 1.332032-.878906 35.742187 18.707032 68.171875 50.09375 83.277344v25.078124c0 4.417969 2.445313 8.363282 6.375 10.300782 1 .492187 2.289063.863281 3.019532.992187v64.15625h-101.539063c-4.15625 0-7.523437 3.367188-7.523437 7.519531 0 4.152344 3.367187 7.519532 7.523437 7.519532h162.179687c9.210938 0 16.707032-7.496094 16.707032-16.707032v-100.882812c0-1.824219-.066406-3.648438-.1875-5.464844 6.421875-4.570312 12.261718-10.027344 17.316406-16.242187 4.457031 2.019531 9.085938 3.59375 13.828125 4.675781 1.003906.226562 1.921875.660156 2.730469 1.28125l28.605468 22.011719c7.058594 5.4375 17.265626.367187 17.265626-8.617188v-20.414062c21.046874-10.402344 36.210937-30.363281 40.804687-53.910157.796875-4.074218-1.867187-8.023437-5.941406-8.820312zm-212.335938-136.960938c0 10.175782-8.328125 18.394532-18.605469 20.078126v-40.152344c10.464844 1.722656 18.605469 10.058594 18.605469 20.074218zm-178.898437 20.078126c-10.300782-1.683594-18.605469-9.921876-18.605469-20.078126 0-9.734374 9.023437-17.550781 18.605469-19.671874zm.238281-55.058594c-3.472656.449218-6.996094 1.414062-10.023437 2.632812v-23.058594c0-49.589843 40.34375-89.933593 89.929687-89.933593s89.929687 40.34375 89.929687 89.933593v22.429688c-2.773437-1.027344-6.472656-1.929688-9.78125-2.261719v-1.914062c0-3.550781-.5-5.191407-2.933593-8.347657-2.976563-3.855468-8.480469-9.425781-23.714844-25.804687-4.789063-5.140625-12.429687-5.917969-18.109375-2.207031-28.945312 18.910156-65.449219 29.511718-100.332031 27.003906-7.160157-.542969-13.640625 4.433594-14.964844 11.527344zm14.800781 60.804687c0-6.269531 0-51.070312 0-57.273437 36.226563 2.417968 75.75-8.128906 108.097656-29.066406 13.125 14.101562 20.148438 21.378906 22.117188 23.894531v62.445312c0 35.613281-29.058594 64.070313-64.070312 64.070313-41.09375 0-66.144532-32.289063-66.144532-64.070313zm110.21875 107.792969c-13.085937 13.902344-28.683594 21.253906-45.113281 21.253906-17.574219 0-32.972656-8.355468-45.113281-21.253906l-3.152344-3.347656 4.605469-1.785156c6.773437-2.625 11.324219-9.269532 11.324219-16.535157v-13.65625c20.578124 8.738281 45.320312 9.144531 66.398437-.589843v14.597656c0 7.054687 4.421875 13.507812 11 16.054687l3.667969 1.421875zm136.515625 189.726562c0 .917969-.75 1.667969-1.667969 1.667969h-45.601562v-71.117187l27.714844-21.324219c1.117187-.859375 2.390625-1.457031 3.777344-1.773437 5.503906-1.257813 11.230468-3.238282 15.777343-5.273438zm-10.199219-109.890624c-5.179687 1.945312-8.714843 2.582031-10.226562 3.011718-3.019531.859375-5.808594 2.265625-8.304688 4.1875l-27.933593 21.496094v-19.921875c0-4.519531-2.664063-8.636719-6.789063-10.492187-27.058594-12.160157-44.058594-39.699219-43.308594-70.160157.945313-38.398437 30.757813-70.542969 68.597657-72.351562 42.175781-2.003907 75.496093 32.914062 75.496093 74.296875 0 31.199218-19.414062 59.429687-47.53125 69.933594zm0 0"/></svg>