<svg height="512pt" viewBox="-4 0 511 512" width="512pt" xmlns="http://www.w3.org/2000/svg"><path d="m442.359375 73.929688c-5.324219-53.40625-66.464844-81.816407-110.710937-51.054688-9.34375-13.789062-25.132813-22.875-43.007813-22.875-21.453125 0-40.878906 13.546875-48.480469 33.363281-10.535156-1.027343-20.890625 2.863281-28.164062 10.632813-15.816406-2.097656-31.050782 5.179687-39.578125 18.089844-33.300781 7.90625-63.492188 26.800781-85.304688 53.460937-22.847656 27.925781-35.429687 63.21875-35.429687 99.378906v22.230469c0 22.152344-8.628906 42.976562-24.289063 58.640625l-20.59375 20.59375c-13.449219 13.449219-3.949219 36.441406 15.09375 36.441406h29.617188c.09375 0 .171875.074219.171875.167969v25.410156c0 42.203125 34.335937 76.539063 76.535156 76.539063 10.667969 0 19.347656 8.675781 19.347656 19.34375v22.054687c0 8.628906 7.023438 15.652344 15.652344 15.652344h44.277344c4.144531 0 7.5-3.359375 7.5-7.5 0-4.144531-3.355469-7.5-7.5-7.5h-44.277344c-.359375 0-.648438-.292969-.648438-.652344v-22.054687c0-18.9375-15.410156-34.347657-34.351562-34.347657-33.929688 0-61.535156-27.605468-61.535156-61.535156v-25.410156c0-8.363281-6.804688-15.171875-15.171875-15.171875h-29.617188c-5.652343 0-8.484375-6.832031-4.488281-10.832031l20.597656-20.59375c18.496094-18.496094 28.679688-43.085938 28.679688-69.246094v-22.230469c0-62.074219 41.046875-117.085937 99.308594-135.511719-2.789063 22.179688 12.613281 42.121094 34.0625 45.523438-1.4375 31.800781 23.847656 57.617188 55.019531 57.617188h92.058593c2.46875 10.578124 3.714844 21.441406 3.714844 32.371093v18.886719c0 4.140625 3.355469 7.5 7.5 7.5 4.144532 0 7.5-3.359375 7.5-7.5v-18.886719c0-10.910156-1.136718-21.757812-3.359375-32.371093h86.75c31.097657 0 55.925781-25.886719 54.464844-57.140626-1.457031-31.007812-29.351563-55.515624-61.34375-51.484374zm-233.894531 36.515624c-.003906 0-.003906 0-.007813 0-8.011719 0-14.65625-1.773437-20.625-8.023437-17.402343-18.242187-.945312-47.980469 23.617188-43.328125 4 .761719 8.0625-.707031 10.601562-3.828125 4.5625-5.589844 11.773438-8.132813 18.816407-6.636719 5.378906 1.144532 10.84375-2.101562 12.4375-7.386718 4.65625-15.453126 19.183593-26.242188 35.332031-26.242188 20.386719 0 36.910156 16.597656 36.910156 36.914062-.003906 2.703126 1.222656 5.195313 3.355469 6.84375h.003906c1.941406 1.496094 4.46875 2.136719 7.03125 1.582032 27.792969-5.957032 41.941406 24.890625 25.421875 42.199218-4.863281 5.097657-11.421875 7.90625-18.464844 7.90625zm240.769531 57.109376c-4.796875 0-186.421875 0-194.160156 0-22.304688 0-41.101563-18.410157-40.023438-42.105469h127.851563c28.769531 0 48.21875-29.128907 37.636718-55.476563-6.308593-15.710937-22.269531-26.738281-40.511718-25.460937-.371094-2.621094-1.066406-5.625-1.773438-7.90625 36.492188-27.773438 89.457032-1.667969 89.457032 44.410156-.007813 5.976563 5.625 10.328125 11.378906 8.800781 24.550781-6.496094 48.46875 11.621094 49.628906 36.304688 1.066406 22.761718-17.023438 41.433594-39.484375 41.433594zm0 0"/><path d="m464.265625 216.453125c4.140625 0 7.5-3.355469 7.5-7.5v-10.136719c0-4.144531-3.359375-7.5-7.5-7.5-4.144531 0-7.5 3.355469-7.5 7.5v10.136719c0 4.144531 3.355469 7.5 7.5 7.5zm0 0"/><path d="m456.765625 252.625c0 4.140625 3.355469 7.5 7.5 7.5 4.140625 0 7.5-3.359375 7.5-7.5v-10.140625c0-4.140625-3.359375-7.5-7.5-7.5-4.144531 0-7.5 3.359375-7.5 7.5zm0 0"/><path d="m456.765625 296.292969c0 4.140625 3.355469 7.5 7.5 7.5 4.140625 0 7.5-3.359375 7.5-7.5v-10.136719c0-4.144531-3.359375-7.5-7.5-7.5-4.144531 0-7.5 3.355469-7.5 7.5zm0 0"/><path d="m427.125 216.453125c4.144531 0 7.5-3.355469 7.5-7.5v-10.136719c0-4.144531-3.355469-7.5-7.5-7.5s-7.5 3.355469-7.5 7.5v10.136719c0 4.144531 3.359375 7.5 7.5 7.5zm0 0"/><path d="m419.625 252.625c0 4.140625 3.355469 7.5 7.5 7.5s7.5-3.359375 7.5-7.5v-10.140625c0-4.140625-3.355469-7.5-7.5-7.5s-7.5 3.359375-7.5 7.5zm0 0"/><path d="m419.625 296.292969c0 4.140625 3.355469 7.5 7.5 7.5s7.5-3.359375 7.5-7.5v-10.136719c0-4.144531-3.355469-7.5-7.5-7.5s-7.5 3.355469-7.5 7.5zm0 0"/><path d="m389.988281 216.453125c4.140625 0 7.5-3.355469 7.5-7.5v-10.136719c0-4.144531-3.359375-7.5-7.5-7.5-4.144531 0-7.5 3.355469-7.5 7.5v10.136719c0 4.144531 3.355469 7.5 7.5 7.5zm0 0"/><path d="m382.488281 252.625c0 4.140625 3.355469 7.5 7.5 7.5 4.140625 0 7.5-3.359375 7.5-7.5v-10.140625c0-4.140625-3.359375-7.5-7.5-7.5-4.144531 0-7.5 3.359375-7.5 7.5zm0 0"/><path d="m382.488281 296.292969c0 4.140625 3.355469 7.5 7.5 7.5 4.140625 0 7.5-3.359375 7.5-7.5v-10.136719c0-4.144531-3.359375-7.5-7.5-7.5-4.144531 0-7.5 3.355469-7.5 7.5zm0 0"/><path d="m322.210938 133.414062c-4.144532 0-7.5 3.359376-7.5 7.5v10.136719c0 4.144531 3.355468 7.5 7.5 7.5 4.144531 0 7.5-3.355469 7.5-7.5v-10.136719c0-4.140624-3.355469-7.5-7.5-7.5zm0 0"/><path d="m322.210938 221.523438c4.144531 0 7.5-3.359376 7.5-7.5v-10.136719c0-4.144531-3.355469-7.5-7.5-7.5-4.144532 0-7.5 3.355469-7.5 7.5v10.136719c0 4.140624 3.359374 7.5 7.5 7.5zm0 0"/><path d="m314.710938 257.691406c0 4.144532 3.355468 7.5 7.5 7.5 4.144531 0 7.5-3.355468 7.5-7.5v-10.136718c0-4.140626-3.355469-7.5-7.5-7.5-4.144532 0-7.5 3.359374-7.5 7.5zm0 0"/><path d="m285.070312 133.414062c-4.140624 0-7.5 3.359376-7.5 7.5v10.136719c0 4.144531 3.359376 7.5 7.5 7.5 4.144532 0 7.503907-3.355469 7.503907-7.5v-10.136719c0-4.140624-3.359375-7.5-7.503907-7.5zm0 0"/><path d="m285.070312 221.523438c4.144532 0 7.503907-3.359376 7.503907-7.5v-10.136719c0-4.144531-3.359375-7.5-7.503907-7.5-4.140624 0-7.5 3.355469-7.5 7.5v10.136719c0 4.140624 3.359376 7.5 7.5 7.5zm0 0"/><path d="m277.570312 257.691406c0 4.144532 3.359376 7.5 7.5 7.5 4.144532 0 7.503907-3.355468 7.503907-7.5v-10.136718c0-4.140626-3.359375-7.5-7.503907-7.5-4.140624 0-7.5 3.359374-7.5 7.5zm0 0"/><path d="m247.933594 133.414062c-4.144532 0-7.5 3.359376-7.5 7.5v10.136719c0 4.144531 3.355468 7.5 7.5 7.5 4.144531 0 7.5-3.355469 7.5-7.5v-10.136719c0-4.140624-3.359375-7.5-7.5-7.5zm0 0"/><path d="m247.933594 221.523438c4.144531 0 7.5-3.359376 7.5-7.5v-10.136719c0-4.144531-3.355469-7.5-7.5-7.5-4.144532 0-7.5 3.355469-7.5 7.5v10.136719c0 4.140624 3.355468 7.5 7.5 7.5zm0 0"/><path d="m240.433594 257.691406c0 4.144532 3.355468 7.5 7.5 7.5 4.144531 0 7.5-3.355468 7.5-7.5v-10.136718c0-4.140626-3.355469-7.5-7.5-7.5-4.144532 0-7.5 3.359374-7.5 7.5zm0 0"/><path d="m235 504.5c0 4.140625 3.355469 7.5 7.5 7.5h48.125c8.695312 0 15.769531-7.074219 15.769531-15.769531v-56.5625c0-21.148438 7.171875-40.917969 20.191407-55.671875 25.316406-28.6875 39.261718-65.578125 39.261718-103.867188v-11.3125c0-4.144531-3.359375-7.5-7.5-7.5-4.144531 0-7.5 3.355469-7.5 7.5v11.3125c0 34.632813-12.613281 67.996094-35.511718 93.941406-15.4375 17.496094-23.941407 40.789063-23.941407 65.597657v56.5625c0 .421875-.34375.769531-.769531.769531h-48.125c-4.144531 0-7.5 3.355469-7.5 7.5zm0 0"/></svg>