<svg height="512pt" viewBox="-36 0 512 512.001" width="512pt" xmlns="http://www.w3.org/2000/svg"><path d="m294.0625 50.625c-52.359375 0-94.960938 42.601562-94.960938 94.960938 0 52.359374 42.601563 94.960937 94.960938 94.960937s94.960938-42.601563 94.960938-94.960937c0-52.359376-42.601563-94.960938-94.960938-94.960938zm0 174.921875c-44.089844 0-79.960938-35.871094-79.960938-79.960937 0-44.089844 35.871094-79.957032 79.960938-79.957032s79.957031 35.867188 79.957031 79.957032c0 44.089843-35.867187 79.960937-79.957031 79.960937zm0 0"/><path d="m294.0625 82.394531c-34.84375 0-63.195312 28.347657-63.195312 63.191407 0 34.847656 28.351562 63.195312 63.195312 63.195312s63.191406-28.351562 63.191406-63.195312-28.347656-63.191407-63.191406-63.191407zm0 111.386719c-26.574219 0-48.191406-21.621094-48.191406-48.195312 0-26.570313 21.617187-48.191407 48.191406-48.191407s48.191406 21.621094 48.191406 48.191407c0 26.574218-21.617187 48.195312-48.191406 48.195312zm0 0"/><path d="m294.0625 114.5c-17.140625 0-31.085938 13.945312-31.085938 31.085938 0 17.140624 13.945313 31.082031 31.085938 31.082031s31.082031-13.941407 31.082031-31.082031c0-17.140626-13.945312-31.085938-31.082031-31.085938zm0 47.167969c-8.867188 0-16.082031-7.214844-16.082031-16.082031 0-8.867188 7.214843-16.082032 16.082031-16.082032s16.082031 7.214844 16.082031 16.082032c0 8.867187-7.214843 16.082031-16.082031 16.082031zm0 0"/><path d="m432.148438 138.085938h-12.164063c-3.75-63.597657-54.824219-114.671876-118.421875-118.417969v-12.167969c0-4.144531-3.355469-7.5-7.5-7.5s-7.5 3.355469-7.5 7.5v12.167969c-43.039062 2.535156-80.339844 26.742187-101.121094 61.839843-77.125 6.257813-136.953125 70.796876-136.953125 148.6875v21.058594c0 20.878906-8.132812 40.507813-22.894531 55.269532l-19.507812 19.507812c-12.996094 12.996094-3.800782 35.191406 14.578124 35.191406h27.820313v23.835938c0 40.195312 32.703125 72.898437 72.898437 72.898437 9.886719 0 17.933594 8.042969 17.933594 17.929688v20.890625c0 8.394531 6.824219 15.222656 15.21875 15.222656h38.566406c4.144532 0 7.5-3.355469 7.5-7.5s-3.355468-7.5-7.5-7.5h-38.566406c-.121094 0-.21875-.097656-.21875-.222656v-20.890625c0-18.15625-14.773437-32.929688-32.933594-32.929688-31.921874 0-57.894531-25.972656-57.894531-57.898437v-24.066406c0-8.144532-6.625-14.769532-14.769531-14.769532h-28.054688c-5.019531 0-7.519531-6.035156-3.972656-9.585937l19.511719-19.507813c17.59375-17.59375 27.285156-40.988281 27.285156-65.875v-21.058594c0-66.914062 49.078125-122.871093 113.917969-132.667968-5.273438 12.820312-8.4375 26.523437-9.265625 40.558594h-12.164063c-4.144531 0-7.5 3.355468-7.5 7.5 0 4.144531 3.355469 7.5 7.5 7.5h12.164063c3.75 63.597656 54.824219 114.671874 118.417969 118.421874v12.164063c0 4.144531 3.359375 7.5 7.503906 7.5 4.140625 0 7.5-3.355469 7.5-7.5v-12.164063c10.875-.640624 21.476562-2.765624 30.308594-5.542968v19.953125c0 4.144531 3.355468 7.5 7.5 7.5 4.144531 0 7.5-3.355469 7.5-7.5v-25.785157c41.109375-19.023437 70.3125-59.542968 73.113281-107.046874h12.164063c4.140624 0 7.5-3.355469 7.5-7.5 0-4.144532-3.359376-7.5-7.5-7.5zm-26.941407 7.640624c-.074219 61.269532-49.953125 111.007813-111.144531 111.007813-61.289062 0-111.148438-49.859375-111.148438-111.148437 0-13.382813 2.445313-26.4375 6.753907-38.179688 15.605469-42.539062 56.511719-72.96875 104.390625-72.96875 61.242187 0 111.074218 49.785156 111.148437 111.007812 0 .046876-.007812.089844-.007812.136719s.007812.097657.007812.144531zm0 0"/><path d="m337.925781 313.578125c-4.054687-.84375-8.023437 1.761719-8.867187 5.816406-4.707032 22.65625-15.332032 43.851563-30.722656 61.292969-14.691407 16.644531-22.777344 38.804688-22.777344 62.398438v53.578124c0 .1875-.152344.335938-.335938.335938h-47.117187c-4.144531 0-7.503907 3.355469-7.503907 7.5s3.359376 7.5 7.503907 7.5h47.117187c8.457032 0 15.335938-6.878906 15.335938-15.335938v-53.578124c0-19.9375 6.753906-38.570313 19.023437-52.472657 17.113281-19.390625 28.925781-42.964843 34.164063-68.167969.84375-4.054687-1.761719-8.027343-5.820313-8.867187zm0 0"/></svg>