<svg height="512pt" viewBox="0 -34 512.00021 512" width="512pt" xmlns="http://www.w3.org/2000/svg"><path d="m256 108.132812c-76.167969 0-147.996094 37.351563-186.023438 99.25-5.183593 8.429688-5.222656 18.277344 0 26.777344 38.839844 63.21875 111.570313 99.246094 186.019532 99.246094h.003906c76.179688 0 148-37.359375 186.023438-99.246094 4.972656-8.089844 5.429687-17.941406 0-26.777344-38.046876-61.925781-109.890626-99.25-186.023438-99.25zm-173.242188 118.175782c-2.203124-3.582032-2.285156-7.355469 0-11.074219 20.25-32.960937 51.117188-58.660156 87.503907-74.441406-41.980469 44.980469-41.96875 114.988281 0 159.957031-36.386719-15.78125-67.25-41.476562-87.503907-74.441406zm346.484376 0c-20.308594 33.058594-51.289063 58.804687-87.8125 74.578125 15.761718-16.855469 26.574218-38.226563 30.292968-61.425781.65625-4.089844-2.128906-7.9375-6.21875-8.59375-4.082031-.652344-7.9375 2.128906-8.59375 6.21875-5.472656 34.125-28.53125 63.730468-60.28125 77.507812-26.5625 5.027344-54.316406 5.101562-81.257812 0-82.007813-35.546875-81.925782-152.136719 0-187.644531 26.5625-5.027344 54.3125-5.101563 81.257812 0 31.75 13.777343 54.808594 43.382812 60.28125 77.507812.65625 4.089844 4.5 6.875 8.59375 6.21875 4.089844-.65625 6.875-4.503906 6.21875-8.59375-3.71875-23.195312-14.53125-44.570312-30.292968-61.425781 36.523437 15.773438 67.503906 41.523438 87.8125 74.578125 2.160156 3.519531 2.324218 7.292969 0 11.074219zm0 0"/><path d="m256 134.296875c-47.683594 0-86.472656 38.792969-86.472656 86.472656 0 47.683594 38.789062 86.476563 86.472656 86.476563 47.679688 0 86.472656-38.792969 86.472656-86.476563 0-47.679687-38.792968-86.472656-86.472656-86.472656zm0 157.949219c-39.410156 0-71.472656-32.066406-71.472656-71.476563 0-39.410156 32.0625-71.472656 71.472656-71.472656s71.472656 32.0625 71.472656 71.472656c0 39.410157-32.0625 71.476563-71.472656 71.476563zm0 0"/><path d="m256 184.863281c-19.800781 0-35.910156 16.109375-35.910156 35.910157 0 19.796874 16.109375 35.90625 35.910156 35.90625s35.910156-16.109376 35.910156-35.90625c0-19.800782-16.109375-35.910157-35.910156-35.910157zm0 56.816407c-11.53125 0-20.910156-9.378907-20.910156-20.90625 0-11.53125 9.378906-20.910157 20.910156-20.910157 11.527344 0 20.90625 9.378907 20.90625 20.910157.003906 11.527343-9.375 20.90625-20.90625 20.90625zm0 0"/><path d="m403.761719 2.34375c-4.066407-.734375-7.976563 1.976562-8.710938 6.054688-.734375 4.074218 1.976563 7.976562 6.050781 8.710937 55.628907 10.019531 95.960938 58.386719 95.898438 115.007813-.171875 168.449218-178.242188 269.078124-232.8125 295.90625-5.3125 2.613281-11.65625 2.605468-16.96875-.015626-54.519531-26.941406-232.386719-127.933593-232.21875-296.375.03125-31.1875 12.207031-60.492187 34.28125-82.519531 55.082031-54.964843 146.464844-41.332031 184.113281 25.246094.28125.503906.621094.964844 1 1.378906 10.351563 12.480469 23.226563 10.902344 21.683594 10.902344 11.675781 0 20.472656-8.390625 22.660156-12.238281 18.652344-32.8125 52.09375-54.695313 89.457031-58.53125 4.121094-.421875 7.121094-4.105469 6.695313-8.226563-.421875-4.121093-4.113281-7.113281-8.226563-6.695312-41.925781 4.300781-79.46875 28.71875-100.585937 65.371093-2.902344 3.433594-6.441406 5.320313-10 5.320313-.003906 0-.003906 0-.007813 0-3.554687-.003906-7.082031-1.886719-9.988281-5.3125-42.691406-74.507813-145.378906-89.71875-207.394531-27.832031-24.914062 24.855468-38.6523438 57.929687-38.6875 93.121094-.0859375 83.8125 41.738281 155.480468 101.933594 213.335937 54.113281 52.003906 114.980468 84.8125 138.640625 96.503906 9.445312 4.664063 20.75 4.695313 30.230469.027344 123.117187-60.523437 241.054687-170.828125 241.195312-309.351563.070312-63.894531-45.449219-118.480468-108.238281-129.789062zm0 0"/></svg>