<svg height="512pt" viewBox="-28 0 512 512" width="512pt" xmlns="http://www.w3.org/2000/svg"><path d="m399.574219 35.386719h-33.089844c-18.226563 0-34.328125 4.890625-49.230469 14.949219-3.433594 2.316406-4.339844 6.976562-2.023437 10.410156 2.320312 3.4375 6.980469 4.339844 10.414062 2.023437 12.34375-8.332031 25.699219-12.382812 40.835938-12.382812h33.09375c4.144531 0 7.5-3.355469 7.5-7.5 0-4.140625-3.355469-7.5-7.5-7.5zm0 0"/><path d="m399.574219 62.996094h-33.089844c-18.226563 0-34.332031 4.890625-49.230469 14.949218-3.433594 2.316407-4.339844 6.976563-2.023437 10.410157 2.320312 3.4375 6.984375 4.339843 10.414062 2.019531 12.34375-8.328125 25.699219-12.378906 40.835938-12.378906h33.09375c4.144531 0 7.5-3.359375 7.5-7.5 0-4.144532-3.355469-7.5-7.5-7.5zm0 0"/><path d="m399.574219 90.605469h-33.089844c-18.226563 0-34.328125 4.886719-49.230469 14.945312-3.433594 2.316407-4.339844 6.980469-2.023437 10.414063 2.320312 3.433594 6.980469 4.335937 10.414062 2.019531 12.34375-8.328125 25.699219-12.378906 40.835938-12.378906h33.09375c4.144531 0 7.5-3.355469 7.5-7.5s-3.355469-7.5-7.5-7.5zm0 0"/><path d="m399.574219 145.820312h-33.089844c-18.226563 0-34.328125 4.890626-49.230469 14.949219-3.433594 2.316407-4.339844 6.980469-2.023437 10.414063 2.320312 3.433594 6.980469 4.335937 10.414062 2.019531 12.34375-8.332031 25.699219-12.378906 40.835938-12.378906h33.09375c4.144531 0 7.5-3.359375 7.5-7.5 0-4.144531-3.355469-7.503907-7.5-7.503907zm0 0"/><path d="m399.574219 118.210938h-33.089844c-18.226563 0-34.332031 4.890624-49.230469 14.949218-3.433594 2.316406-4.339844 6.980469-2.023437 10.414063 2.320312 3.4375 6.984375 4.335937 10.414062 2.019531 12.34375-8.332031 25.699219-12.378906 40.835938-12.378906h33.09375c4.144531 0 7.5-3.359375 7.5-7.503906 0-4.140626-3.355469-7.5-7.5-7.5zm0 0"/><path d="m269.246094 50.335938c-14.902344-10.058594-31.003906-14.949219-49.230469-14.949219h-33.09375c-4.144531 0-7.5 3.359375-7.5 7.5 0 4.144531 3.355469 7.5 7.5 7.5h33.09375c15.136719 0 28.496094 4.050781 40.835937 12.382812 3.441407 2.320313 8.101563 1.40625 10.414063-2.023437 2.320313-3.429688 1.414063-8.09375-2.019531-10.410156zm0 0"/><path d="m186.921875 77.996094h33.09375c15.136719 0 28.496094 4.050781 40.839844 12.378906 3.433593 2.324219 8.097656 1.410156 10.410156-2.019531 2.320313-3.433594 1.414063-8.09375-2.019531-10.410157-14.902344-10.0625-31.003906-14.949218-49.230469-14.949218h-33.09375c-4.144531 0-7.5 3.355468-7.5 7.5 0 4.140625 3.355469 7.5 7.5 7.5zm0 0"/><path d="m269.246094 105.550781c-14.902344-10.058593-31.003906-14.945312-49.230469-14.945312h-33.09375c-4.144531 0-7.5 3.355469-7.5 7.5s3.355469 7.5 7.5 7.5h33.09375c15.136719 0 28.496094 4.050781 40.835937 12.378906 3.441407 2.320313 8.101563 1.410156 10.414063-2.019531 2.320313-3.433594 1.414063-8.097656-2.019531-10.414063zm0 0"/><path d="m269.246094 160.769531c-14.902344-10.058593-31.003906-14.949219-49.230469-14.949219h-33.09375c-4.144531 0-7.5 3.359376-7.5 7.503907 0 4.140625 3.355469 7.5 7.5 7.5h33.09375c15.136719 0 28.496094 4.046875 40.835937 12.378906 3.441407 2.320313 8.101563 1.410156 10.414063-2.019531 2.320313-3.433594 1.414063-8.097656-2.019531-10.414063zm0 0"/><path d="m186.921875 133.214844h33.09375c15.136719 0 28.496094 4.046875 40.839844 12.378906 3.433593 2.320312 8.097656 1.410156 10.410156-2.019531 2.320313-3.433594 1.414063-8.097657-2.019531-10.414063-14.902344-10.058594-31.003906-14.949218-49.230469-14.949218h-33.09375c-4.144531 0-7.5 3.359374-7.5 7.5 0 4.144531 3.355469 7.503906 7.5 7.503906zm0 0"/><path d="m449.488281 98.210938c4.144531 0 7.503907-3.355469 7.503907-7.5v-56.867188c0-8.84375-7.195313-16.039062-16.039063-16.039062h-7.644531v-.996094c0-.035156 0-.074219 0-.109375-.085938-9.222657-7.617188-16.699219-16.859375-16.699219h-49.269531c-38.292969 0-60.355469 20.714844-73.929688 34.65625-13.574219-13.941406-35.636719-34.65625-73.929688-34.65625h-49.269531c-9.242187 0-16.773437 7.476562-16.859375 16.699219v.105469 1h-7.644531c-8.84375 0-16.039063 7.195312-16.039063 16.039062v42.003906c-48.132812 28.484375-77.855468 80.335938-77.855468 136.417969v22.4375c0 22.375-8.710938 43.40625-24.53125 59.226563l-20.785156 20.78125c-13.527344 13.53125-3.96875 36.660156 15.1875 36.660156h29.886718c.136719 0 .242188.105468.242188.238281v25.644531c0 42.550782 34.617187 77.167969 77.171875 77.167969 10.804687 0 19.59375 8.792969 19.59375 19.59375v22.257813c0 8.671874 7.054687 15.726562 15.726562 15.726562h44.34375c4.140625 0 7.5-3.355469 7.5-7.5s-3.359375-7.5-7.5-7.5h-44.34375c-.402343 0-.726562-.324219-.726562-.726562v-22.257813c0-19.074219-15.519531-34.59375-34.59375-34.59375-34.28125 0-62.171875-27.890625-62.171875-62.167969v-25.644531c0-8.402344-6.835938-15.238281-15.242188-15.238281h-29.890625c-5.761719 0-8.652343-6.972656-4.574219-11.050782l20.78125-20.78125c18.652344-18.652343 28.925782-43.457031 28.925782-69.835937v-22.433594c0-47.742187 23.785156-92.105469 62.855468-118.675781v87.355469c0 19.589843 15.941407 35.527343 35.527344 35.527343h43.332032c37.8125 0 59.164062 6.714844 78.535156 14.09375 3.867187 1.472657 4.695312 1.882813 6.34375 1.882813h.003906c1.648438 0 2.429688-.390625 6.328125-1.875 11.164063-4.253906 27.535156-10.488281 53.980469-12.992187v60.484374c0 34.96875-12.730469 68.652344-35.851563 94.851563-15.570312 17.640625-24.144531 41.132813-24.144531 66.148437v57.082032c0 .46875-.378906.847656-.847656.847656h-49.230469c-4.140625 0-7.5 3.355469-7.5 7.5s3.359375 7.5 7.5 7.5h49.230469c8.738281 0 15.847656-7.109375 15.847656-15.847656v-57.082032c0-21.355468 7.242188-41.324218 20.390625-56.222656 25.539063-28.941406 39.605469-66.152344 39.605469-104.777344v-61.429687c3.078125-.101563 6.257812-.164063 9.574218-.164063h43.328126c19.589843 0 35.527343-15.9375 35.527343-35.527343v-55.238281c0-4.140626-3.355469-7.5-7.5-7.5-4.140625 0-7.5 3.359374-7.5 7.5v55.238281c0 11.316406-9.210937 20.527343-20.527343 20.527343h-43.328126c-17.871093 0-36.125 1.535157-53.609374 5.542969 12.753906-8.296875 26.832031-12.492187 42.65625-12.492187h49.269531c9.296875 0 16.859375-7.5625 16.859375-16.859375v-144.863281h7.644531c.570313 0 1.035156.46875 1.035156 1.039062v56.867188c0 4.144531 3.359375 7.5 7.5 7.5zm-241.121093 103.265624h-43.332032c-11.316406 0-20.527344-9.207031-20.527344-20.527343v-147.105469c0-.570312.46875-1.039062 1.039063-1.039062h7.644531v144.863281c0 9.296875 7.5625 16.859375 16.859375 16.859375h49.269531c15.269532 0 29.417969 3.867187 42.699219 12.519531-17.460937-3.980469-35.433593-5.570313-53.652343-5.570313zm77.382812 5.296876c-19.132812-17.851563-40.378906-27.246094-66.433594-27.246094h-49.265625c-1.027343 0-1.859375-.832032-1.859375-1.859375v-160.808594c0-1.023437.832032-1.859375 1.859375-1.859375h49.265625c34.105469 0 52.929688 19.492188 65.382813 32.390625.355469.367187.703125.730469 1.050781 1.085937zm132.558594-181.46875v152.363281c0 1.027343-.835938 1.859375-1.859375 1.859375h-49.269531c-26.210938 0-47.410157 9.519531-66.429688 27.242187v-158.292969c.34375-.355468.691406-.71875 1.046875-1.085937 12.457031-12.898437 31.28125-32.390625 65.382813-32.390625h49.269531c1.023437 0 1.859375.835938 1.859375 1.859375zm0 0"/></svg>