<svg height="511pt" viewBox="0 -23 511.99951 511" width="511pt" xmlns="http://www.w3.org/2000/svg"><path d="m243.722656 212.78125c-9.078125-8.902344-24.105468-8.832031-32.980468 1.109375-8.113282 9.089844-7.511719 23.03125 1.367187 31.742187l21.984375 21.5625c9.015625 8.839844 23.496094 8.679688 32.308594-.386718l44.589844-45.875c8.777343-9.03125 8.578124-23.449219-.460938-32.230469-9.050781-8.804687-23.464844-8.566406-32.230469.453125l-28.632812 29.457031zm13.011719 20.148438 32.355469-33.285157c2.984375-3.074219 7.882812-3.140625 10.953125-.15625 0 0 .003906.003907.003906.003907 3.070313 2.984374 3.140625 7.882812.15625 10.957031l-44.589844 45.871093c-2.992187 3.078126-7.914062 3.144532-10.980469.132813l-21.988281-21.5625c-3.078125-3.019531-3.382812-7.949219-.675781-10.980469 2.976562-3.335937 8.074219-3.46875 11.21875-.386718l9.761719 9.570312c3.847656 3.777344 10.03125 3.703125 13.785156-.164062zm0 0"/><path d="m505.964844 243.703125c-4.164063-.8125-8.148438 1.953125-8.863282 6.105469-4.824218 28-21.808593 52.203125-46.609374 66.40625-3.5625 2.039062-20.117188 7.128906-37.09375 5.992187l-7.738282-.851562c-3.910156-.429688-7.476562 2.257812-8.148437 6.132812l-.023438.140625c-.742187 4.273438 2.316407 8.273438 6.636719 8.679688 3.367188.316406 18.414062 3.339844 40.023438-2.128906 5.792968 39.3125-23.433594 74.652343-62.367188 77.105468.789062-6.542968.738281-14.640625-1.792969-23.117187-1.117187-3.730469-4.8125-6.238281-8.640625-5.523438-4.496094.839844-7.144531 5.355469-5.84375 9.605469 7.511719 24.546875-9.464844 48.867188-32.628906 56.613281-3.558594 1.1875-5.953125 4.671875-5.359375 8.371094.753906 4.707031 5.453125 7.433594 9.785156 6.011719 18.308594-6.011719 32.832031-19.535156 40.640625-36.769532 50.878906-.269531 89.902344-46.542968 80.632813-97.285156.386719-.269531.738281-.574218 1.058593-.90625 27.703126-16.5 46.6875-43.929687 52.242188-75.597656.714844-4.085938-1.839844-8.191406-5.910156-8.984375zm0 0"/><path d="m511.878906 214.410156c-5.617187-32.101562-25.03125-59.863281-53.347656-76.292968 9.4375-50.777344-29.605469-97.347657-80.722656-97.535157-22.355469-50.78125-94.601563-54.894531-121.042969-2.855469-26.207031-51.574218-98.410156-48.5625-121.042969 2.855469-51.191406.1875-90.152344 46.835938-80.726562 97.535157-33.9375 19.703124-54.996094 56.203124-54.996094 95.414062 0 38.773438 20.605469 74.890625 53.890625 94.742188.324219.335937.679687.644531 1.070313.917968-9.273438 50.726563 29.738281 97.015625 80.632812 97.285156 23.390625 51.617188 95.074219 54.140626 121.15625 2.894532 8.289062 16.269531 22.886719 29.054687 40.9375 34.460937 4.804688 1.4375 9.898438-2.148437 9.691406-7.6875-.117187-3.171875-2.375-5.824219-5.414062-6.738281-22.183594-6.667969-37.675782-27.675781-37.675782-51.109375v-51.511719c.730469-.464844 1.457032-1.035156 2.050782-1.589844l38.394531-35.941406c32.726563-30.632812 52.210937-71.398437 52.210937-115.652344v-24.34375c0-14.601562-12.742187-26.050781-28.566406-26.410156-28.503906-.652344-51.871094-9.75-63.527344-18.816406-.1875-.128906-.371093-.253906-.5625-.375v-54.894531c0-28.550781 23.285157-53.617188 52.816407-53.234375 20.476562.285156 38.957031 12.632812 47.085937 31.460937 0 .003907 0 .007813.003906.007813 0 .011718.003907.019531.007813.027344.058594.132812 5.644531 13.570312 1.367187 27.882812-1.160156 3.875.785157 8.15625 4.597657 9.511719 4.066406 1.445312 8.472656-.804688 9.71875-4.886719 2.675781-8.730469 2.699219-17.078125 1.855469-23.757812 38.855468 2.421874 68.382812 37.757812 62.355468 77.40625-23.75-5.992188-40.601562-1.792969-40.601562-1.792969-4.132813.710937-6.863282 4.695312-6.035156 8.808593l.070312.34375c.792969 3.9375 4.570312 6.535157 8.535156 5.867188l7.332032-1.234375c6.417968-.433594 21.023437-.441406 37.5625 5.949219 24.539062 14.238281 41.347656 38.308594 46.140624 66.132812.757813 4.398438 5.195313 7.242188 9.605469 5.917969 3.691407-1.105469 5.835938-4.964844 5.171875-8.761719zm-262.636718 183.886719c0 14.214844-5.863282 28.148437-16.082032 38.230469-37.890625 37.371094-98.199218-1.035156-85.171875-44.136719 1.164063-3.847656-.847656-8.097656-4.636719-9.433594-4.058593-1.433593-8.460937.808594-9.707031 4.886719-2.628906 8.597656-2.691406 16.8125-1.890625 23.441406-38.851562-2.445312-68.171875-37.699218-62.371094-77.105468 23.453126 5.933593 40.667969 1.933593 40.667969 1.933593 4.265625-.574219 7.160157-4.636719 6.304688-8.855469-.761719-3.773437-4.277344-6.34375-8.105469-5.925781l-8.109375.890625c-16.054687 1.136719-32.960937-3.636718-37.101563-6.011718-29.601562-16.953126-47.992187-48.636719-47.992187-82.679688 0-33.871094 18.203125-65.394531 47.535156-82.410156 24.648438-9.523438 46.378907-5.050782 45.371094-5.15625 3.882813.398437 7.410156-2.273438 8.085937-6.113282l.003907-.019531c.742187-4.214843-2.21875-8.1875-6.472657-8.683593-3.917968-.453126-18.746093-3.367188-40.136718 2.035156-6.019532-39.644532 23.496094-74.984375 62.355468-77.410156-.839843 6.679687-.816406 15.027343 1.855469 23.757812 1.253907 4.097656 5.675781 6.335938 9.734375 4.882812 3.804688-1.363281 5.742188-5.636718 4.585938-9.507812-4.269532-14.273438 1.257812-27.632812 1.375-27.910156.003906-.003906.003906-.003906.003906-.007813 8.21875-19.039062 27.039062-31.464843 47.789062-31.464843 28.820313 0 52.109376 24.535156 52.109376 53.242187v54.894531c-1 .632813-2.753907 1.992188-6.613282 4.257813-19.757812 11.597656-41.804687 14.574219-57.472656 14.929687-16.019531.367188-28.566406 11.964844-28.566406 26.410156 0 28.6875-2.320313 58.601563 18.894531 97.359376 15.566406 28.449218 30.257813 39.773437 71.710937 78.578124.65625.613282 1.464844 1.21875 2.046876 1.589844zm78.792968-240.40625c7.648438.171875 13.863282 5.273437 13.863282 11.367187v24.34375c0 38.855469-16.851563 76.027344-47.449219 104.664063-15.132813 14.171875-6.363281 5.960937-37.683594 35.277344-16.804687-15.730469-21.105469-19.753907-37.683594-35.277344-30.597656-28.636719-47.445312-65.808594-47.445312-104.664063v-24.34375c0-4.574218 3.496093-8.582031 8.472656-10.378906 6.394531-2.304687 42.851563 1.214844 76.65625-22.144531 20.820313 14.386719 46.40625 20.585937 71.269531 21.15625zm0 0"/></svg>