<svg height="512pt" viewBox="0 -5 512.001 512" width="512pt" xmlns="http://www.w3.org/2000/svg"><path d="m39.976562 451.007812v38.035157c0 7.203125 5.859376 13.0625 13.0625 13.0625h85.679688c7.15625 0 12.980469-5.824219 12.980469-12.980469v-14.832031c0-5.816407 4.734375-10.550781 10.554687-10.550781 29.734375 0 53.925782-24.191407 53.925782-53.925782v-14.746094h17.574218c14.941406 0 22.464844-18.121093 11.886719-28.699218l-13.847656-13.847656c-10.070313-10.070313-15.613281-23.457032-15.613281-37.695313v-14.953125c0-38.136719-20.269532-73.335938-52.519532-92.710938l4.292969-3.300781c1.425781-1.097656 3.046875-1.859375 4.820313-2.261719 44.929687-10.242187 77.734374-51.414062 77.734374-99.574218 0-57.222656-46.386718-104.6875-104.082031-101.910156-51.71875 2.472656-93.257812 46.074218-94.570312 99.265624-.960938 38.894532 19.328125 74.339844 52.265625 92.488282-57.769532 2.09375-104.121094 49.734375-104.121094 108.003906v43.847656c0 26.351563 9.59375 51.734375 27.019531 71.476563 8.355469 9.46875 12.957031 22.1875 12.957031 35.808593zm26.875-351.253906c1.117188-45.371094 36.386719-82.554687 80.289063-84.652344 49.183594-2.351562 88.367187 38.328126 88.367187 86.925782 0 40.496094-27.785156 76.222656-66.070312 84.949218-3.898438.886719-7.476562 2.570313-10.636719 5-30.230469 23.265626-18.554687 14.277344-34.132812 26.265626 0-8.695313 0-15.574219 0-25.382813 0-4.753906-2.804688-9.082031-7.140625-11.03125-31.664063-14.230469-51.558594-46.449219-50.675782-82.074219zm-51.851562 200.121094c0-51.328125 41.761719-93.085938 93.089844-93.085938.519531 0 1.046875.003907 1.574218.015626v17.605468c0 4.632813 2.558594 8.789063 6.699219 10.828125.007813.003907.011719.003907.019531.007813 4.09375 2.011718 8.875 1.46875 12.414063-1.253906l21.933594-16.878907c30.789062 15.894531 50.445312 47.90625 50.445312 82.761719v14.953125c0 18.246094 7.105469 35.398437 20.007813 48.300781l13.847656 13.847656c1.160156 1.160157.355469 3.09375-1.277344 3.09375h-19.917968c-6.980469 0-12.660157 5.675782-12.660157 12.65625v17.089844c0 21.460938-17.460937 38.921875-38.925781 38.921875-14.089844 0-25.550781 11.464844-25.550781 25.554688v12.8125h-81.71875v-36.097657c0-17.277343-5.9375-33.523437-16.714844-45.734374-15.003906-17-23.265625-38.859376-23.265625-61.550782zm0 0"/><path d="m112.175781 78.90625h79.984375c4.144532 0 7.5-3.359375 7.5-7.5 0-4.144531-3.355468-7.5-7.5-7.5h-79.984375c-4.144531 0-7.5 3.355469-7.5 7.5 0 4.140625 3.355469 7.5 7.5 7.5zm0 0"/><path d="m112.175781 111.015625h79.984375c4.144532 0 7.5-3.355469 7.5-7.5 0-4.140625-3.355468-7.5-7.5-7.5h-79.984375c-4.144531 0-7.5 3.359375-7.5 7.5 0 4.144531 3.355469 7.5 7.5 7.5zm0 0"/><path d="m199.660156 135.628906c0-4.140625-3.355468-7.5-7.5-7.5h-79.984375c-4.144531 0-7.5 3.359375-7.5 7.5s3.355469 7.5 7.5 7.5h79.984375c4.144532 0 7.5-3.359375 7.5-7.5zm0 0"/><path d="m399.824219 63.90625h-79.984375c-4.144532 0-7.5 3.355469-7.5 7.5 0 4.140625 3.355468 7.5 7.5 7.5h79.984375c4.140625 0 7.5-3.359375 7.5-7.5 0-4.144531-3.359375-7.5-7.5-7.5zm0 0"/><path d="m399.824219 96.015625h-79.984375c-4.144532 0-7.5 3.359375-7.5 7.5 0 4.144531 3.355468 7.5 7.5 7.5h79.984375c4.140625 0 7.5-3.355469 7.5-7.5 0-4.140625-3.359375-7.5-7.5-7.5zm0 0"/><path d="m399.824219 128.128906h-79.984375c-4.144532 0-7.5 3.359375-7.5 7.5s3.355468 7.5 7.5 7.5h79.984375c4.140625 0 7.5-3.359375 7.5-7.5s-3.359375-7.5-7.5-7.5zm0 0"/><path d="m407.890625 191.871094c25.835937-14.285156 44.390625-39.6875 50.28125-69.394532.808594-4.0625-1.832031-8.011718-5.894531-8.816406-4.074219-.804687-8.011719 1.835938-8.816406 5.898438-5.488282 27.671875-23.800782 50.949218-48.988282 62.269531-4.335937 1.949219-7.140625 6.277344-7.140625 11.03125v25.386719c0-.003906-20.59375-15.847656-20.59375-15.847656l-13.539062-10.421876c-3.15625-2.429687-6.734375-4.113281-10.636719-5-38.285156-8.726562-66.070312-44.453124-66.070312-84.949218 0-48.589844 39.183593-89.28125 88.363281-86.925782 39.140625 1.871094 72.402343 32.21875 79.101562 72.15625.683594 4.085938 4.539063 6.84375 8.636719 6.15625 4.085938-.683593 6.84375-4.550781 6.15625-8.636718-7.855469-46.847656-47.039062-82.453125-93.175781-84.660156-57.667969-2.777344-104.082031 44.660156-104.082031 101.910156 0 48.125 32.773437 89.324218 77.734374 99.574218 1.773438.402344 3.394532 1.164063 4.820313 2.261719l4.292969 3.300781c-32.25 19.378907-52.519532 54.574219-52.519532 92.710938v14.953125c0 14.238281-5.542968 27.625-15.613281 37.695313l-13.847656 13.847656c-10.566406 10.566406-3.070313 28.699218 11.886719 28.699218h17.574218v14.742188c0 29.738281 24.191407 53.929688 53.929688 53.929688 5.816406 0 10.550781 4.734374 10.550781 10.550781v14.832031c0 7.15625 5.824219 12.980469 12.980469 12.980469h23.625c4.144531 0 7.5-3.359375 7.5-7.5 0-4.144531-3.355469-7.5-7.5-7.5h-21.605469v-12.8125c0-14.089844-11.460937-25.554688-25.554687-25.554688-21.460938 0-38.925782-17.460937-38.925782-38.925781v-17.085938c0-6.980468-5.679687-12.660156-12.65625-12.660156h-19.917968c-1.636719 0-2.4375-1.929687-1.28125-3.089844l13.851562-13.847656c12.898438-12.902344 20.007813-30.058594 20.007813-48.304687v-14.949219c0-34.859375 19.652343-66.867188 50.441406-82.761719l21.9375 16.878907c7.8125 6.003906 19.132813.421874 19.132813-9.582032v-17.605468c.527343-.011719 1.050781-.015626 1.574218-.015626 51.328125 0 93.089844 41.757813 93.089844 93.085938v43.847656c0 22.691406-8.261719 44.550782-23.265625 61.550782-10.777344 12.210937-16.714844 28.457031-16.714844 45.734374v36.097657h-25.113281c-4.140625 0-7.5 3.359375-7.5 7.5s3.359375 7.5 7.5 7.5h27.054688c7.203124 0 13.0625-5.859375 13.0625-13.0625v-38.035157c0-13.621093 4.601562-26.339843 12.957031-35.808593 17.425781-19.742188 27.019531-45.128907 27.019531-71.476563v-43.847656c0-58.265625-46.347656-105.902344-104.109375-108.003906zm0 0"/></svg>