<svg height="512pt" viewBox="-5 0 512 512.00075" width="512pt" xmlns="http://www.w3.org/2000/svg"><path d="m22.679688 338.101562h32.359374c.484376 0 .878907.394532.878907.878907v27.761719c0 45.726562 37.199219 82.925781 82.925781 82.925781 12.039062 0 21.832031 9.792969 21.832031 21.832031v24.09375c0 9.046875 7.359375 16.40625 16.40625 16.40625h47.058594c4.140625 0 7.5-3.359375 7.5-7.5 0-4.144531-3.359375-7.503906-7.5-7.503906h-47.058594c-.773437 0-1.40625-.628906-1.40625-1.402344v-24.09375c0-20.308594-16.519531-36.832031-36.832031-36.832031-37.453125 0-67.925781-30.472657-67.925781-67.925781v-27.761719c0-8.757813-7.125-15.878907-15.878907-15.878907h-32.359374c-6.792969 0-10.199219-8.214843-5.394532-13.019531l22.5-22.5c20.078125-20.078125 31.132813-46.769531 31.132813-75.164062v-24.289063c0-85.976562 69.945312-155.921875 155.925781-155.921875 19.0625 0 37.585938 3.378907 55.183594 10.050781-5.5 10.542969-9.546875 22.863282-11.207032 35.472657-19.945312-9.109375-43.019531-12.148438-65.917968-7.511719-.011719.003906-.027344.003906-.039063.007812-5.710937 1.160157-10.148437 5.597657-11.308593 11.308594-4.898438 24.125-1.238282 48.269532 8.75 68.574219-31.960938 12.6875-49.75 38.449219-51.636719 43.769531-1.5 4.226563-.980469 8.96875 1.574219 12.824219 40.578124 61.257813 128.765624 64.308594 173.707031 7.050781 14.433593 18.367188 34.269531 31.445313 56.707031 37.40625.035156.011719.070312.023438.109375.03125v8.175782c0 38.007812-13.839844 74.621093-38.96875 103.09375-16.757813 18.988281-25.984375 44.277343-25.984375 71.207031v61.796875c0 .847656-.6875 1.535156-1.53125 1.535156h-57.140625c-4.144531 0-7.5 3.359375-7.5 7.5 0 4.144531 3.355469 7.5 7.5 7.5h57.140625c9.117188 0 16.53125-7.417969 16.53125-16.535156v-61.796875c0-23.273438 7.898438-45.035157 22.230469-61.28125 28.054687-31.785157 42.722656-70.34375 42.722656-118.351563 40.542969 4.722656 79.617187-13.71875 101.882813-47.332031 3.21875-4.855469 3.21875-11.132813 0-15.992187-12.183594-18.394532-29.738282-32.566407-50.066407-40.597657 1.925781-3.941406 3.621094-8.015625 5.066407-12.21875 1.347656-3.917969-.734376-8.183593-4.652344-9.53125-3.917969-1.347656-8.1875.734375-9.53125 4.652344-14.640625 42.582031-58.925782 69.535156-105.230469 60.316406-12.539063-65.464843 44.378906-121.242187 108.46875-108.472656 1.023437 5.15625 1.613281 10.460937 1.746094 15.78125.101562 4.078125 3.4375 7.3125 7.496093 7.3125.0625 0 .125 0 .191407-.003906 4.140625-.101563 7.414062-3.542969 7.308593-7.683594-.15625-6.308594-.867187-12.613281-2.109374-18.734375-1.160157-5.707031-5.601563-10.144531-11.308594-11.304688-22.628906-4.597656-45.644532-1.769531-65.96875 7.523438-4.035156-30.519531-21.09375-58.097656-47.117188-75.335938-4.855468-3.21875-11.132812-3.21875-15.992187 0-11.015625 7.292969-20.421875 16.441407-27.921875 26.878907-20.09375-8.015625-41.316406-12.085938-63.183594-12.085938-94.25 0-170.925781 76.671875-170.925781 170.921875v24.289063c0 24.386719-9.496094 47.3125-26.738281 64.558593l-22.5 22.496094c-14.257813 14.261719-4.183594 38.628906 16 38.628906zm419.269531-174.851562c18.273437 6.699219 34.097656 19.128906 45 35.457031-33.257813 49.804688-104.320313 55.34375-144.921875 10.816407 38.984375 4.152343 77.472656-13.359376 99.921875-46.273438zm-277.011719 35.457031c10.445312-15.621093 26.046875-28.484375 45.019531-35.445312 21.738281 31.878906 59.527344 50.515625 99.941407 46.261719-40.617188 44.679687-111.792969 38.855468-144.960938-10.816407zm161.007812-183.597656c23.894532 15.957031 38.9375 42.0625 40.84375 70.523437-6.199218 4.074219-12.035156 8.890626-16.964843 13.820313-10.015625 10.011719-18.339844 22.242187-23.878907 36.210937-8.277343-20.875-23.003906-38.304687-40.835937-50.027343 1.882813-28.203125 16.722656-54.425781 40.835937-70.527344zm-9.289062 178.222656c-64.800781 12.902344-121.300781-44.3125-108.46875-108.472656 62.652344-12.386719 121.066406 41.15625 108.46875 108.472656zm0 0"/></svg>