<svg height="512pt" viewBox="-19 0 512 512.00114" width="512pt" xmlns="http://www.w3.org/2000/svg"><path d="m19.925781 369.769531h25.820313v22.058594c0 38.152344 31.039062 69.191406 69.191406 69.191406 9.09375 0 16.492188 7.398438 16.492188 16.488281v19.710938c0 8.148438 6.628906 14.78125 14.78125 14.78125h36.105468c4.144532 0 7.5-3.359375 7.5-7.5 0-4.144531-3.355468-7.5-7.5-7.5h-35.886718v-19.492188c0-17.363281-14.128907-31.488281-31.492188-31.488281-29.878906 0-54.1875-24.3125-54.1875-54.191406v-22.707031c0-7.914063-6.441406-14.355469-14.355469-14.355469h-26.46875c-4.351562 0-6.523437-5.234375-3.441406-8.3125l18.402344-18.402344c16.675781-16.679687 25.863281-38.855469 25.863281-62.445312v-19.867188c0-56.949219 37.1875-105.558593 90.457031-121.058593l-1.527343 2.769531c-3.554688 6.441406 1.128906 14.347656 8.46875 14.347656h32.375v86.605469c0 9.898437 13.34375 13.367187 18.140624 4.675781 5.050782-9.15625 45.148438-81.820313 50.207032-90.984375 17.0625 11.851562 30.863281 27.617188 40.347656 46.125l-46.429688 53.25c-7.339843 8.417969 1.402344 20.046875 11.089844 15.382812l48.601563-23.402343c.394531 4.078125.59375 8.1875.59375 12.292969v46.691406l-42.859375 5.421875c-9.566406 1.207031-11.007813 14.378906-2.269532 17.851562l41.917969 16.667969c-4.679687 20.351562-14.398437 39.277344-28.316406 55.050781-13.925781 15.777344-21.59375 36.78125-21.59375 59.140625v50.433594h-42.632813c-4.144531 0-7.5 3.359375-7.5 7.5 0 4.144531 3.355469 7.5 7.5 7.5h42.742188c8.210938 0 14.890625-6.679688 14.890625-14.890625v-50.542969c0-18.703125 6.335937-36.179687 17.839844-49.214844 15.0625-17.070312 25.726562-37.449218 31.148437-59.378906l51.257813 20.378906c6.585937 2.621094 13.535156-2.828124 12.652343-9.800781l-3.1875-25.207031 69.601563-8.800781c9.496094-1.199219 11.144531-14.324219 2.265625-17.855469l-107.25-42.644531c-6.550781-2.605469-13.539062 2.789062-12.652344 9.800781l3.1875 25.203125-11.738281 1.488281v-44.796875c0-6.410156-.441406-12.839843-1.300781-19.175781l91.652344-44.132812c6.632812-3.195313 8.351562-12.097657 2.96875-16.789063l-24.402344-21.277344 74.695312-85.664062c7.339844-8.417969-1.402344-20.046875-11.089844-15.382813l-154.550781 74.421875c-6.628906 3.195313-8.347656 12.09375-2.964843 16.785157l24.398437 21.28125-17.742187 20.347656c-10.707032-18.898438-25.5625-35-43.597657-47.234375l10.101563-18.304688c3.546875-6.441406-1.136719-14.34375-8.472656-14.34375h-32.375v-15.460937c0-4.140625-3.355469-7.5-7.5-7.5-4.144532 0-7.5 3.359375-7.5 7.5v20.789062c0 5.332032 4.335937 9.671875 9.671874 9.671875h28.675782l-9.113282 16.519531-44.105468 79.925782v-71.246094c0-5.335938-4.339844-9.675781-9.675782-9.675781h-28.675781l53.222657-96.445313v15.460938c0 4.140625 3.355468 7.5 7.5 7.5 4.144531 0 7.5-3.359375 7.5-7.5v-36.148438c0-9.9375-13.324219-13.398437-18.140626-4.671875l-56.277343 101.980469c-31.378907 5.839844-60.039063 22.304688-81.03125 46.648438-22.054688 25.578124-34.199219 58.292968-34.199219 92.121093v19.867188c0 19.582031-7.625 37.988281-21.472656 51.835937l-18.398438 18.402344c-12.652344 12.644531-3.457031 33.925781 14.046875 33.925781zm327.433594-66.554687c5.085937-.640625 8.695313-5.300782 8.054687-10.382813l-2.691406-21.273437 77.675782 30.882812-53.28125 6.738282c-5.082032.644531-8.691407 5.300781-8.050782 10.386718l2.691406 21.273438-77.675781-30.882813c8.335938-1.058593 45.632813-5.773437 53.277344-6.742187zm64.179687-126.265625c-.003906 0-.003906-.003907-.007812-.003907zm-69.65625-14.835938c3.746094-4.296875 3.53125-10.582031-.523437-14.113281l-22.617187-19.722656 124.761718-60.078125-60.90625 69.851562c-3.730468 4.277344-3.496094 10.609375.523438 14.117188l22.617187 19.722656-124.761719 60.078125c7.125-8.175781 53.929688-61.851562 60.90625-69.855469zm0 0"/></svg>