<svg height="512pt" viewBox="0 -22 512.00241 512" width="512pt" xmlns="http://www.w3.org/2000/svg"><path d="m187.640625 241.71875h22.152344c6.117187 0 11.09375-4.976562 11.09375-11.09375v-8.886719c1.160156-.441406 2.308593-.917969 3.441406-1.429687l6.285156 6.285156c4.335938 4.339844 11.347657 4.339844 15.6875.003906l15.664063-15.667968c4.324218-4.324219 4.324218-11.359376 0-15.683594l-6.285156-6.289063c.507812-1.128906.984374-2.277343 1.425781-3.4375h8.890625c6.113281 0 11.089844-4.976562 11.089844-11.09375v-22.152343c0-6.117188-4.976563-11.09375-11.089844-11.09375h-8.890625c-.441407-1.160157-.917969-2.308594-1.425781-3.441407l6.285156-6.285156c4.324218-4.324219 4.324218-11.359375 0-15.683594l-15.664063-15.667969c-4.335937-4.335937-11.351562-4.335937-15.6875 0l-6.285156 6.285157c-1.132813-.507813-2.28125-.984375-3.441406-1.425781v-8.886719c0-6.117188-4.976563-11.089844-11.09375-11.089844h-22.152344c-6.117187 0-11.09375 4.972656-11.09375 11.089844v8.890625c-1.160156.4375-2.308594.914062-3.4375 1.425781l-6.285156-6.285156c-4.335938-4.335938-11.351563-4.339844-15.6875-.003907l-15.667969 15.667969c-4.324219 4.324219-4.324219 11.359375 0 15.683594l6.285156 6.289063c-.507812 1.128906-.984375 2.277343-1.425781 3.441406h-8.890625c-6.113281 0-11.089844 4.972656-11.089844 11.089844v22.15625c0 6.113281 4.976563 11.089843 11.089844 11.089843h8.890625c.441406 1.160157.917969 2.308594 1.425781 3.441407l-6.285156 6.285156c-4.324219 4.324218-4.324219 11.359375 0 15.683594l15.664062 15.667968c4.335938 4.335938 11.351563 4.335938 15.6875 0l6.289063-6.285156c1.128906.507812 2.277344.984375 3.4375 1.425781v8.886719c0 6.117188 4.976563 11.09375 11.09375 11.09375zm-23.179687-33.976562-5.484376 5.480468-10.136718-10.136718 5.480468-5.480469c3.398438-3.398438 4.222657-8.554688 2.054688-12.835938-1.082031-2.132812-2.007812-4.363281-2.75-6.632812-1.492188-4.558594-5.722656-7.621094-10.527344-7.621094h-7.75v-14.335937h7.75c4.804688 0 9.035156-3.066407 10.527344-7.621094.746094-2.269532 1.667969-4.503906 2.75-6.632813 2.167969-4.28125 1.34375-9.4375-2.054688-12.835937l-5.480468-5.480469 10.136718-10.140625 5.484376 5.484375c3.394531 3.394531 8.554687 4.222656 12.839843 2.050781 2.125-1.078125 4.355469-2.003906 6.628907-2.75 4.558593-1.492187 7.617187-5.722656 7.617187-10.523437v-7.75h14.339844v7.75c0 4.800781 3.0625 9.03125 7.621093 10.523437 2.269532.746094 4.496094 1.667969 6.628907 2.75 4.28125 2.171875 9.441406 1.34375 12.835937-2.050781l5.484375-5.484375 10.136719 10.140625-5.480469 5.480469c-3.398437 3.394531-4.222656 8.554687-2.050781 12.835937 1.078125 2.128907 2.003906 4.359375 2.746094 6.632813 1.492187 4.554687 5.722656 7.621094 10.527344 7.621094h7.75v14.335937h-7.75c-4.804688 0-9.035157 3.0625-10.527344 7.617187-.742188 2.273438-1.667969 4.503907-2.746094 6.632813-2.171875 4.285156-1.347656 9.441406 2.050781 12.839844l5.480469 5.480469-10.136719 10.136718-5.480469-5.476562c-3.398437-3.402344-8.554687-4.230469-12.839843-2.058594-2.128907 1.082031-4.359375 2.003906-6.632813 2.75-4.554687 1.492188-7.617187 5.722656-7.617187 10.527344v7.75h-14.339844v-7.75c0-4.804688-3.0625-9.035156-7.617187-10.527344-2.269532-.742188-4.5-1.667969-6.636719-2.75-4.277344-2.164062-9.4375-1.339844-12.832031 2.054688zm0 0"/><path d="m236.527344 163.347656c0-20.851562-16.960938-37.8125-37.8125-37.8125-20.847656 0-37.808594 16.960938-37.808594 37.8125 0 20.847656 16.960938 37.808594 37.808594 37.808594 20.851562 0 37.8125-16.960938 37.8125-37.808594zm-60.621094 0c0-12.578125 10.230469-22.8125 22.8125-22.8125 12.578125 0 22.808594 10.234375 22.808594 22.8125s-10.230469 22.808594-22.808594 22.808594c-12.582031 0-22.8125-10.230469-22.8125-22.808594zm0 0"/><path d="m398.359375 73.113281c16.796875 0 31.609375 10.113281 37.738281 25.761719 1.511719 3.859375 5.859375 5.761719 9.71875 4.25s5.761719-5.859375 4.25-9.71875c-8.394531-21.4375-28.691406-35.289062-51.707031-35.289062-30.617187 0-55.527344 24.90625-55.527344 55.523437 0 30.621094 24.910157 55.527344 55.527344 55.527344 23.015625 0 43.3125-13.851563 51.707031-35.292969 1.511719-3.855469-.390625-8.207031-4.25-9.714844-3.855468-1.511718-8.207031.390625-9.71875 4.246094-6.128906 15.652344-20.941406 25.761719-37.738281 25.761719-22.347656 0-40.527344-18.179688-40.527344-40.527344 0-22.34375 18.179688-40.527344 40.527344-40.527344zm0 0"/><path d="m500.90625 84.171875h-17.714844c-1.144531-3.296875-2.484375-6.53125-4.007812-9.675781l12.527344-12.53125c4.320312-4.324219 4.320312-11.359375 0-15.683594l-25.992188-25.992188c-4.324219-4.324218-11.359375-4.324218-15.6875 0l-12.527344 12.527344c-3.140625-1.523437-6.378906-2.863281-9.675781-4.007812v-17.714844c0-6.117188-4.976563-11.09375-11.089844-11.09375h-36.757812c-6.117188 0-11.09375 4.976562-11.09375 11.09375v17.714844c-3.292969 1.144531-6.53125 2.484375-9.675781 4.007812l-12.527344-12.527344c-4.324219-4.324218-11.363282-4.324218-15.6875 0l-25.992188 25.992188c-4.320312 4.324219-4.320312 11.359375.003906 15.683594l12.527344 12.53125c-1.261718 2.59375-2.386718 5.261718-3.390625 7.964844-28.78125-32.742188-69.855469-51.417969-113.625-51.417969-83.433593 0-151.3125 67.878906-151.3125 151.308593v21.375c0 21.222657-8.261719 41.167969-23.269531 56.171876l-19.796875 19.800781c-13.113281 13.117187-3.835937 35.527343 14.71875 35.527343h28.351563v24.304688c0 40.734375 33.140624 73.875 73.875 73.875 10.097656 0 18.308593 8.214844 18.308593 18.3125v21.203125c0 8.457031 6.882813 15.335937 15.339844 15.335937h41.984375c4.144531 0 7.5-3.359374 7.5-7.5 0-4.144531-3.355469-7.5-7.5-7.5h-41.984375c-.1875 0-.339844-.152343-.339844-.335937v-21.203125c0-18.371094-14.941406-33.3125-33.308593-33.3125-32.464844 0-58.875-26.410156-58.875-58.875v-24.429688c0-8.203124-6.671876-14.875-14.875-14.875h-28.476563c-5.175781 0-7.773437-6.257812-4.109375-9.917968l19.800781-19.800782c17.835938-17.835937 27.660157-41.554687 27.660157-66.78125v-21.375c0-75.160156 61.148437-136.308593 136.308593-136.308593 35.632813 0 69.292969 13.730469 94.582031 38.152343-5.792968.363282-10.382812 5.25-10.382812 11.066407v36.757812c0 6.117188 4.976562 11.089844 11.089844 11.089844h17.714844c1.125 3.234375 2.464843 6.480469 4.011718 9.679687l-12.527344 12.527344c-4.324218 4.324219-4.324218 11.359375 0 15.683594l25.992188 25.992188c.007812.007812.015625.011718.023438.019531 1.605468 1.597656 3.691406 2.664062 5.808593 3.046875v34.980468c0 33.230469-12.097656 65.238282-34.066406 90.128907-14.890625 16.875-23.089844 39.339843-23.089844 63.257812v54.378907c0 .25-.203125.453124-.449219.453124h-45.507812c-4.144531 0-7.5 3.355469-7.5 7.5 0 4.140626 3.355469 7.5 7.5 7.5h45.507812c8.519532 0 15.449219-6.933593 15.449219-15.453124v-54.378907c0-20.261719 6.867188-39.203125 19.335938-53.332031 24.390625-27.632812 37.820312-63.167969 37.820312-100.054688v-43.191406l7.382813-7.382812c3.144531 1.523437 6.378906 2.863281 9.675781 4.011718v17.714844c0 6.113282 4.976563 11.089844 11.089844 11.089844h36.757812c6.117188 0 11.09375-4.976562 11.09375-11.089844v-17.714844c3.292969-1.148437 6.53125-2.488281 9.675781-4.011718l12.527344 12.527344c4.324219 4.324218 11.359375 4.328124 15.6875 0l25.992188-25.992188c4.320312-4.324219 4.320312-11.359375 0-15.683594l-12.53125-12.527344c1.523437-3.144531 2.867187-6.382812 4.011718-9.675781h17.714844c6.117188 0 11.09375-4.976562 11.09375-11.09375v-36.757812c-.003906-6.113281-4.980468-11.089844-11.097656-11.089844zm-3.90625 43.941406h-16.636719c-4.882812 0-9.132812 3.113281-10.574219 7.75-1.34375 4.324219-3.097656 8.554688-5.207031 12.566407-2.265625 4.296874-1.464843 9.507812 1.992188 12.964843l11.765625 11.765625-20.464844 20.464844-11.765625-11.765625c-3.457031-3.457031-8.667969-4.257813-12.964844-1.996094-4.011719 2.113281-8.238281 3.867188-12.566406 5.207031-4.632813 1.441407-7.75 5.691407-7.75 10.578126v16.632812h-28.9375v-16.632812c0-4.886719-3.117187-9.136719-7.75-10.574219-4.324219-1.34375-8.554687-3.097657-12.566406-5.210938-4.296875-2.261719-9.507813-1.460937-12.96875 1.992188l-11.574219 11.578125c-.003906 0-.003906.003906-.003906.003906l-.1875.183594c-10.5625-10.5625-10.488282-10.488282-20.460938-20.460938l11.765625-11.769531c2.3125-2.308594 3.429688-5.40625 3.242188-8.488281-.191407-3.042969-1.171875-4.125-2.765625-7.519532-1.449219-3.085937-2.6875-6.277343-3.691406-9.523437-1.445313-4.644531-5.722657-7.746094-10.578126-7.746094h-16.632812v-28.941406h16.632812c4.886719 0 9.136719-3.113281 10.578126-7.75 1.34375-4.324219 3.09375-8.554687 5.207031-12.566406 2.265625-4.296875 1.464843-9.507813-1.992188-12.964844l-11.765625-11.765625 20.460938-20.464844 11.769531 11.769532c3.457031 3.453124 8.667969 4.253906 12.960937 1.992187 4.015626-2.113281 8.246094-3.867187 12.570313-5.210937 4.636719-1.441407 7.75-5.691407 7.75-10.574219v-16.636719h28.9375v16.636719c0 4.882812 3.113281 9.132812 7.75 10.574219 4.324219 1.34375 8.554687 3.097656 12.566406 5.210937 4.296875 2.261719 9.507813 1.457031 12.964844-1.996094l11.765625-11.765625 20.464844 20.464844-11.765625 11.761719c-3.457031 3.457031-4.257813 8.667969-1.996094 12.964843 2.113281 4.015626 3.867187 8.246094 5.210937 12.570313 1.441407 4.636719 5.691407 7.75 10.574219 7.75h16.636719zm0 0"/></svg>